HIERARCHY
ROOT hip
{
  OFFSET 0 0 0
  CHANNELS 6 Xposition Yposition Zposition Zrotation Yrotation Xrotation
  JOINT abdomen
  {
    OFFSET 0 20.6881 -0.73152
    CHANNELS 3 Zrotation Xrotation Yrotation
    JOINT chest
    {
      OFFSET 0 11.7043 -0.48768
      CHANNELS 3 Zrotation Xrotation Yrotation
      JOINT neck
      {
        OFFSET 0 22.1894 -2.19456
        CHANNELS 3 Zrotation Xrotation Yrotation
        JOINT head
        {
          OFFSET -0.24384 7.07133 1.2192
          CHANNELS 3 Zrotation Xrotation Yrotation
          JOINT leftEye
          {
            OFFSET 4.14528 8.04674 8.04672
            CHANNELS 3 Zrotation Xrotation Yrotation
            End Site
            {
              OFFSET 1 0 0
            }
          }
          JOINT rightEye
          {
            OFFSET -3.6576 8.04674 8.04672
            CHANNELS 3 Zrotation Xrotation Yrotation
            End Site
            {
              OFFSET 1 0 0
            }
          }
        }
      }
      JOINT rCollar
      {
        OFFSET -2.68224 19.2634 -4.8768
        CHANNELS 3 Zrotation Xrotation Yrotation
        JOINT rShldr
        {
          OFFSET -8.77824 -1.95073 1.46304
          CHANNELS 3 Zrotation Xrotation Yrotation
          JOINT rForeArm
          {
            OFFSET -28.1742 -1.7115 0.48768
            CHANNELS 3 Zrotation Xrotation Yrotation
            JOINT rHand
            {
              OFFSET -22.5879 0.773209 7.07136
              CHANNELS 3 Zrotation Xrotation Yrotation
              JOINT rThumb1
              {
                OFFSET -1.2192 -0.487915 3.41376
                CHANNELS 3 Zrotation Xrotation Yrotation
                JOINT rThumb2
                {
                  OFFSET -3.37035 -0.52449 3.41376
                  CHANNELS 3 Zrotation Xrotation Yrotation
                  End Site
                  {
                    OFFSET -1.78271 -1.18214 1.43049
                  }
                }
              }
              JOINT rIndex1
              {
                OFFSET -7.75947 0.938293 5.60832
                CHANNELS 3 Zrotation Xrotation Yrotation
                JOINT rIndex2
                {
                  OFFSET -2.54057 -0.884171 1.56538
                  CHANNELS 3 Zrotation Xrotation Yrotation
                  End Site
                  {
                    OFFSET -1.62519 -0.234802 1.16502
                  }
                }
              }
              JOINT rMid1
              {
                OFFSET -8.24714 1.18213 3.41376
                CHANNELS 3 Zrotation Xrotation Yrotation
                JOINT rMid2
                {
                  OFFSET -3.10165 -0.590103 1.0647
                  CHANNELS 3 Zrotation Xrotation Yrotation
                  End Site
                  {
                    OFFSET -2.48547 -0.328903 0.83742
                  }
                }
              }
              JOINT rRing1
              {
                OFFSET -8.82822 0.546677 1.51678
                CHANNELS 3 Zrotation Xrotation Yrotation
                JOINT rRing2
                {
                  OFFSET -2.60934 -0.819778 -0.0198488
                  CHANNELS 3 Zrotation Xrotation Yrotation
                  End Site
                  {
                    OFFSET -2.33842 -0.294052 0.168128
                  }
                }
              }
              JOINT rPinky1
              {
                OFFSET -8.27202 -0.0477905 -0.4584
                CHANNELS 3 Zrotation Xrotation Yrotation
                JOINT rPinky2
                {
                  OFFSET -1.82734 -0.647385 -0.700984
                  CHANNELS 3 Zrotation Xrotation Yrotation
                  End Site
                  {
                    OFFSET -1.69225 -0.51767 -0.607171
                  }
                }
              }
            }
          }
        }
      }
      JOINT lCollar
      {
        OFFSET 2.68224 19.2634 -4.8768
        CHANNELS 3 Zrotation Xrotation Yrotation
        JOINT lShldr
        {
          OFFSET 8.77824 -1.95073 1.46304
          CHANNELS 3 Zrotation Xrotation Yrotation
          JOINT lForeArm
          {
            OFFSET 28.1742 -1.7115 0.48768
            CHANNELS 3 Zrotation Xrotation Yrotation
            JOINT lHand
            {
              OFFSET 22.5879 0.773209 7.07136
              CHANNELS 3 Zrotation Xrotation Yrotation
              JOINT lThumb1
              {
                OFFSET 1.2192 -0.487915 3.41376
                CHANNELS 3 Zrotation Xrotation Yrotation
                JOINT lThumb2
                {
                  OFFSET 3.37035 -0.52449 3.41376
                  CHANNELS 3 Zrotation Xrotation Yrotation
                  End Site
                  {
                    OFFSET 1.78271 -1.18214 1.43049
                  }
                }
              }
              JOINT lIndex1
              {
                OFFSET 7.75947 0.938293 5.60832
                CHANNELS 3 Zrotation Xrotation Yrotation
                JOINT lIndex2
                {
                  OFFSET 2.54057 -0.884171 1.56538
                  CHANNELS 3 Zrotation Xrotation Yrotation
                  End Site
                  {
                    OFFSET 1.62519 -0.234802 1.16502
                  }
                }
              }
              JOINT lMid1
              {
                OFFSET 8.24714 1.18213 3.41376
                CHANNELS 3 Zrotation Xrotation Yrotation
                JOINT lMid2
                {
                  OFFSET 3.10165 -0.590103 1.0647
                  CHANNELS 3 Zrotation Xrotation Yrotation
                  End Site
                  {
                    OFFSET 2.48547 -0.328903 0.83742
                  }
                }
              }
              JOINT lRing1
              {
                OFFSET 8.82822 0.546677 1.51678
                CHANNELS 3 Zrotation Xrotation Yrotation
                JOINT lRing2
                {
                  OFFSET 2.60934 -0.819778 -0.0198488
                  CHANNELS 3 Zrotation Xrotation Yrotation
                  End Site
                  {
                    OFFSET 2.33842 -0.294052 0.168128
                  }
                }
              }
              JOINT lPinky1
              {
                OFFSET 8.27202 -0.0477905 -0.4584
                CHANNELS 3 Zrotation Xrotation Yrotation
                JOINT lPinky2
                {
                  OFFSET 1.82734 -0.647385 -0.700984
                  CHANNELS 3 Zrotation Xrotation Yrotation
                  End Site
                  {
                    OFFSET 1.69225 -0.51767 -0.607171
                  }
                }
              }
            }
          }
        }
      }
    }
  }
  JOINT rButtock
  {
    OFFSET -8.77824 4.35084 1.2192
    CHANNELS 3 Zrotation Xrotation Yrotation
    JOINT rThigh
    {
      OFFSET 0 -1.70687 -2.19456
      CHANNELS 3 Zrotation Xrotation Yrotation
      JOINT rShin
      {
        OFFSET 0 -36.8199 0.73152
        CHANNELS 3 Zrotation Xrotation Yrotation
        JOINT rFoot
        {
          OFFSET 0.73152 -45.1104 -5.12064
          CHANNELS 3 Zrotation Xrotation Yrotation
          End Site
          {
            OFFSET -1.1221 -3.69964 12.103
          }
        }
      }
    }
  }
  JOINT lButtock
  {
    OFFSET 8.77824 4.35084 1.2192
    CHANNELS 3 Zrotation Xrotation Yrotation
    JOINT lThigh
    {
      OFFSET 0 -1.70687 -2.19456
      CHANNELS 3 Zrotation Xrotation Yrotation
      JOINT lShin
      {
        OFFSET 0 -36.8199 0.73152
        CHANNELS 3 Zrotation Xrotation Yrotation
        JOINT lFoot
        {
          OFFSET -0.73152 -45.1104 -5.12064
          CHANNELS 3 Zrotation Xrotation Yrotation
          End Site
          {
            OFFSET 1.1221 -3.69964 12.103
          }
        }
      }
    }
  }
}
MOTION
Frames:	4
Frame Time:	0.03333
-35.4555 52.4871 67.4115 9.950587 4.548877 3.539853 -22.131326 8.795176 52.337416 -1.001336 -11.002362 -45.573097 -15.754726 27.068156 -79.89793 37.254757 4.05851 41.382532 0.001958 -0.0 -0.001643 0.001958 -0.0 -0.001643 -156.767685 -12.691592 163.694039 154.260389 37.78428 -154.7797 152.464104 -29.980892 99.401613 167.938537 -8.441048 147.996221 -164.926363 -2.599988 89.610039 -162.473531 -4.678128 82.757997 -19.25465 24.192453 13.44735 -161.94241 -10.036143 110.570808 -157.811029 1.859174 141.743803 178.9047 -50.436963 140.35302 -0.037329 -2.527484 -0.796021 -156.299968 -26.436158 174.954028 -0.675806 -1.725371 -0.62481 -177.097164 80.781868 -140.864406 152.71147 11.577726 -158.256584 86.379807 16.18514 -57.733534 -17.614867 -26.832009 129.622004 163.823327 18.982747 -137.271913 172.978345 -10.652898 -89.921144 148.273137 6.398319 -76.894681 171.628913 -50.392661 -120.66456 11.791727 38.329442 -5.746613 131.772815 45.399073 -120.89789 144.72937 36.276685 -131.807732 145.060152 -3.393792 178.060252 -7.408369 76.155442 -4.718062 131.212569 -20.217269 128.781561 154.363596 35.297593 146.056869 179.991885 75.750036 0.005387 150.024754 -1.071379 -87.341129 -85.534557 -0.969351 -105.198049 -46.541932 -2.139548 -162.953927 -179.998328 75.750421 0.000339 -78.694467 78.65505 -7.79128 40.303859 0.729032 87.065253 22.074558 44.965951 -152.447134
-35.4963 52.360600000000005 67.547 9.955795 4.574747 3.527925 -17.843222 7.048209 -98.760821 5.121191 4.605657 104.931849 1.618289 34.747165 157.113695 -12.279534 42.969517 167.213335 -2.5e-05 -0.0 0.002216 -0.000816 0.0 -0.000287 -141.214478 42.407397 145.522631 134.705921 -69.416995 159.261249 -176.124421 50.537897 111.559928 153.503716 -39.013068 137.672298 12.893466 -12.851248 -0.540636 -66.854158 33.537917 55.942854 -128.836452 17.610534 108.239273 -3.000043 18.905223 -3.982599 -176.424746 -51.678771 143.839513 -177.404107 -43.303751 142.269879 -145.124515 1.388569 -179.564577 9.915054 -2.279173 -9.286684 -141.020511 0.091468 -138.057149 -132.708382 -20.920474 -129.871583 150.21273 21.385605 -155.325414 116.876012 21.573523 -77.831761 7.797252 -41.512504 142.565372 171.837099 -3.298869 -142.888706 -8.826428 -8.819226 0.683633 4.041161 2.348004 2.571684 37.445507 36.293951 -28.638093 171.584037 -22.212255 -111.003734 157.468721 2.827063 -141.544185 -172.613009 -59.013897 -136.367169 145.083373 5.167069 -179.244217 -10.597296 63.735965 0.516484 140.077164 -2.304641 137.186382 39.416739 -47.790666 40.418399 -0.00252 -0.001611 -0.002464 -68.593123 -57.251743 -132.010919 -74.239604 20.799623 142.389837 43.692371 -53.558821 -43.806018 -0.000723 4.9e-05 -0.001516 12.136404 17.192398 38.361105 14.242508 24.488493 -86.202147 152.318636 -71.639049 -119.876376
-35.546499999999995 52.2253 67.696 9.944967 4.529244 3.459039 -17.822344 6.995661 -102.625518 4.667914 4.887744 108.863239 -0.261591 17.133934 34.577879 -19.912102 -18.213169 -76.911095 0.000205 -0.0 -0.001232 0.000205 -0.0 -0.001232 -134.602342 50.800419 138.607946 13.695531 -71.161782 42.861304 -7.468617 -67.377916 22.756684 -6.023978 35.572512 3.116296 -0.8631 0.850217 0.138409 -3.446134 4.209741 3.443377 -2.190253 3.467479 1.28227 0.846449 13.863232 2.774657 -16.26935 34.153555 12.011594 0.098391 9.242205 1.509087 -0.031324 -2.241641 -0.704212 10.93247 -6.584897 -0.878788 4.992035 14.649939 4.502698 -13.427399 -30.274959 -14.290498 -0.578404 -3.624584 0.78709 74.00069 -35.839485 133.989813 -7.327937 -22.293485 133.506494 167.507466 9.689374 -140.062559 166.100162 -3.774402 -89.727321 16.12726 -41.029843 -7.502857 -85.445199 -75.194572 -37.077546 3.074007 28.8613 -3.191256 -9.262771 -29.074222 3.196262 169.272606 -22.933114 -144.304025 144.908562 10.1467 -177.655791 -10.750967 21.115327 6.476795 165.575643 77.522346 149.62702 -5.620306 11.891723 -1.866768 -179.991577 75.749193 -0.005935 149.716572 -1.272365 -78.313741 -74.609656 9.380309 131.311313 -40.57603 19.493337 -10.383547 -179.998701 75.750852 -0.000844 -78.833976 76.188334 170.009995 -27.339207 -2.132354 92.571106 37.140619 6.031523 19.988043
-35.592400000000005 52.0764 67.8472 9.926608 4.373756 3.359024 -17.794422 8.200549 -75.911609 7.41915 1.972437 82.355248 1.000715 17.673727 42.024737 -23.314358 -15.043287 -84.2643 0.001014 0.0 0.001685 0.001014 0.0 0.001685 3.103852 -24.817259 -4.887181 -126.571939 -7.541484 159.955116 -179.219964 -9.402163 -148.264405 -9.807035 44.796893 4.363628 1.197937 -1.187656 -0.172387 19.710068 -32.759701 -15.05631 163.438771 -68.604313 105.379981 -2.526198 28.98217 1.008455 -20.648921 39.583599 15.808394 2.964099 1.205536 0.1899 -145.106999 -0.988232 -178.816562 -151.231673 -30.708881 -174.118177 -147.716237 20.541598 -144.03183 -144.427358 2.59133 -139.327806 2.8074 14.089069 -3.5113 53.527955 -62.466176 130.379675 150.203491 54.295923 101.027775 5.500404 -26.028943 5.766725 140.492425 19.132415 -82.339772 114.135164 -1.174394 -56.900191 2.538841 4.000627 -1.493892 27.570865 38.28386 -19.980042 -22.720532 -59.734415 -0.674729 0.92931 11.111145 -1.953864 145.051978 -3.671326 177.973094 152.728063 -20.995364 176.11392 143.084549 5.759019 139.949085 14.166229 -29.591617 16.354514 -179.989868 75.750279 -0.007577 149.573118 -1.17677 -64.517398 -85.778397 16.460982 -53.055589 -175.161454 27.17471 -142.835536 179.993814 75.750279 0.005115 -78.729071 78.260168 22.613945 26.662819 -11.056969 -151.98243 98.462598 53.178692 -13.90797
